<mxfile host="app.diagrams.net" agent="Mozilla/5.0 (Windows NT 10.0; Win64; x64) AppleWebKit/537.36 (KHTML, like Gecko) Chrome/131.0.0.0 Safari/537.36" border="50" scale="3" compressed="false" locked="false" version="25.0.3">
  <diagram name="Blank" id="YmL12bMKpDGza6XwsDPr">
    <mxGraphModel dx="1276" dy="508" grid="0" gridSize="10" guides="1" tooltips="1" connect="1" arrows="1" fold="1" page="0" pageScale="1" pageWidth="827" pageHeight="1169" background="none" math="1" shadow="0">
      <root>
        <mxCell id="X5NqExCQtvZxIxQ7pmgY-0" />
        <mxCell id="1" parent="X5NqExCQtvZxIxQ7pmgY-0" />
        <mxCell id="odH1GVVF45cuk4y2AxMI-5" value="" style="edgeStyle=orthogonalEdgeStyle;rounded=0;orthogonalLoop=1;jettySize=auto;html=1;" edge="1" parent="1" source="odH1GVVF45cuk4y2AxMI-1" target="odH1GVVF45cuk4y2AxMI-4">
          <mxGeometry relative="1" as="geometry" />
        </mxCell>
        <mxCell id="odH1GVVF45cuk4y2AxMI-1" value="" style="ellipse;whiteSpace=wrap;html=1;aspect=fixed;" vertex="1" parent="1">
          <mxGeometry x="176" y="299" width="80" height="80" as="geometry" />
        </mxCell>
        <mxCell id="odH1GVVF45cuk4y2AxMI-2" value="" style="ellipse;whiteSpace=wrap;html=1;" vertex="1" parent="1">
          <mxGeometry x="435" y="180" width="120" height="80" as="geometry" />
        </mxCell>
        <mxCell id="odH1GVVF45cuk4y2AxMI-4" value="" style="ellipse;whiteSpace=wrap;html=1;" vertex="1" parent="1">
          <mxGeometry x="336" y="299" width="80" height="80" as="geometry" />
        </mxCell>
        <mxCell id="odH1GVVF45cuk4y2AxMI-11" value="" style="edgeStyle=entityRelationEdgeStyle;rounded=0;orthogonalLoop=1;jettySize=auto;html=1;startArrow=none;endArrow=none;segment=10;curved=1;sourcePerimeterSpacing=0;targetPerimeterSpacing=0;" edge="1" parent="1" source="odH1GVVF45cuk4y2AxMI-6" target="odH1GVVF45cuk4y2AxMI-10">
          <mxGeometry relative="1" as="geometry" />
        </mxCell>
        <mxCell id="odH1GVVF45cuk4y2AxMI-6" value="Sub Topic" style="whiteSpace=wrap;html=1;rounded=1;arcSize=50;align=center;verticalAlign=middle;strokeWidth=1;autosize=1;spacing=4;treeFolding=1;treeMoving=1;newEdgeStyle={&quot;edgeStyle&quot;:&quot;entityRelationEdgeStyle&quot;,&quot;startArrow&quot;:&quot;none&quot;,&quot;endArrow&quot;:&quot;none&quot;,&quot;segment&quot;:10,&quot;curved&quot;:1,&quot;sourcePerimeterSpacing&quot;:0,&quot;targetPerimeterSpacing&quot;:0};" vertex="1" parent="1">
          <mxGeometry x="540" y="263" width="91" height="30" as="geometry" />
        </mxCell>
        <mxCell id="odH1GVVF45cuk4y2AxMI-7" value="" style="edgeStyle=entityRelationEdgeStyle;startArrow=none;endArrow=none;segment=10;curved=1;sourcePerimeterSpacing=0;targetPerimeterSpacing=0;rounded=0;exitX=1;exitY=0;exitDx=0;exitDy=0;" edge="1" target="odH1GVVF45cuk4y2AxMI-6" parent="1" source="odH1GVVF45cuk4y2AxMI-4">
          <mxGeometry relative="1" as="geometry">
            <mxPoint x="376" y="314" as="sourcePoint" />
          </mxGeometry>
        </mxCell>
        <mxCell id="odH1GVVF45cuk4y2AxMI-9" style="edgeStyle=entityRelationEdgeStyle;rounded=0;orthogonalLoop=1;jettySize=auto;html=1;startArrow=none;endArrow=none;segment=10;curved=1;sourcePerimeterSpacing=0;targetPerimeterSpacing=0;entryX=1;entryY=0.5;entryDx=0;entryDy=0;" edge="1" parent="1" source="odH1GVVF45cuk4y2AxMI-8" target="odH1GVVF45cuk4y2AxMI-4">
          <mxGeometry relative="1" as="geometry" />
        </mxCell>
        <mxCell id="odH1GVVF45cuk4y2AxMI-15" value="" style="edgeStyle=entityRelationEdgeStyle;rounded=0;orthogonalLoop=1;jettySize=auto;html=1;startArrow=none;endArrow=none;segment=10;curved=1;sourcePerimeterSpacing=0;targetPerimeterSpacing=0;" edge="1" parent="1" source="odH1GVVF45cuk4y2AxMI-8" target="odH1GVVF45cuk4y2AxMI-14">
          <mxGeometry relative="1" as="geometry" />
        </mxCell>
        <mxCell id="odH1GVVF45cuk4y2AxMI-8" value="Sub Topic" style="whiteSpace=wrap;html=1;rounded=1;arcSize=50;align=center;verticalAlign=middle;strokeWidth=1;autosize=1;spacing=4;treeFolding=1;treeMoving=1;newEdgeStyle={&quot;edgeStyle&quot;:&quot;entityRelationEdgeStyle&quot;,&quot;startArrow&quot;:&quot;none&quot;,&quot;endArrow&quot;:&quot;none&quot;,&quot;segment&quot;:10,&quot;curved&quot;:1,&quot;sourcePerimeterSpacing&quot;:0,&quot;targetPerimeterSpacing&quot;:0};" vertex="1" parent="1">
          <mxGeometry x="558" y="389" width="91" height="30" as="geometry" />
        </mxCell>
        <mxCell id="odH1GVVF45cuk4y2AxMI-13" value="" style="edgeStyle=orthogonalEdgeStyle;rounded=0;orthogonalLoop=1;jettySize=auto;html=1;" edge="1" parent="1" source="odH1GVVF45cuk4y2AxMI-10" target="odH1GVVF45cuk4y2AxMI-12">
          <mxGeometry relative="1" as="geometry" />
        </mxCell>
        <mxCell id="odH1GVVF45cuk4y2AxMI-10" value="" style="whiteSpace=wrap;html=1;rounded=1;arcSize=50;strokeWidth=1;autosize=1;spacing=4;" vertex="1" parent="1">
          <mxGeometry x="696.5" y="248" width="120" height="60" as="geometry" />
        </mxCell>
        <mxCell id="odH1GVVF45cuk4y2AxMI-12" value="" style="whiteSpace=wrap;html=1;rounded=1;arcSize=50;strokeWidth=1;autosize=1;spacing=4;" vertex="1" parent="1">
          <mxGeometry x="896.5" y="248" width="120" height="60" as="geometry" />
        </mxCell>
        <mxCell id="odH1GVVF45cuk4y2AxMI-14" value="Sub Topic" style="whiteSpace=wrap;html=1;rounded=1;arcSize=50;align=center;verticalAlign=middle;strokeWidth=1;autosize=1;spacing=4;treeFolding=1;treeMoving=1;newEdgeStyle={&quot;edgeStyle&quot;:&quot;entityRelationEdgeStyle&quot;,&quot;startArrow&quot;:&quot;none&quot;,&quot;endArrow&quot;:&quot;none&quot;,&quot;segment&quot;:10,&quot;curved&quot;:1,&quot;sourcePerimeterSpacing&quot;:0,&quot;targetPerimeterSpacing&quot;:0};" vertex="1" parent="1">
          <mxGeometry x="729" y="389" width="91" height="30" as="geometry" />
        </mxCell>
      </root>
    </mxGraphModel>
  </diagram>
</mxfile>
